<?xml version="1.0" encoding="UTF-8"?><svg id="Layer_1" xmlns="http://www.w3.org/2000/svg" viewBox="0 0 232.69 202.16"><path d="M33.64,3.49c78.13-7.66,147.3,31.02,172.36,50.2,8.64,6.61,16.89,14.33,21.29,24.29s4.14,22.58-3.04,30.76c-7.23,8.23-19.59,10.08-30.35,8s-20.55-7.43-30.68-11.59c-9.06-3.73-19.02-6.58-28.6-4.47s-18.31,10.66-17.6,20.44c1.35,18.51,31.13,23.71,33.62,42.1,1.13,8.3-4.12,16.21-10.39,21.77-19.46,17.25-49.79,18.72-73.22,7.43-23.42-11.29-40.29-33.45-49.93-57.6S4.34,84.44,2.49,58.51" style="fill:none; stroke:#ffefcf; stroke-miterlimit:10; stroke-width:5px;"/></svg>