<?xml version="1.0" encoding="UTF-8"?><svg id="Layer_1" xmlns="http://www.w3.org/2000/svg" viewBox="0 0 186.31 230.2"><path d="M.92,106.22c10-3.96,20.18-7.97,30.83-8.69,10.64-.72,22.01,2.29,29.38,10.56,9.21,10.35,10.21,26.42,7.57,40.44-2.64,14.02-8.3,27.26-10.58,41.35-1.92,11.84-.62,25.78,8.28,33.09,9.55,7.84,23.27,4.61,34.43-.2,25.35-10.92,48.27-28.25,66.36-50.19,6.68-8.1,12.85-17.11,15.45-27.56,2.6-10.45,1.03-22.63-6.1-30.28-9.15-9.81-24.18-9.66-34.93-17.39-14.87-10.69-17.41-34.18-10.54-51.89,6.87-17.72,20.78-31,34.26-43.64" style="fill:none; stroke:#ffefcf; stroke-miterlimit:10; stroke-width:5px;"/></svg>